<mxfile host="app.diagrams.net" agent="Mozilla/5.0 (Windows NT 10.0; Win64; x64) AppleWebKit/537.36 (KHTML, like Gecko) Chrome/127.0.0.0 Safari/537.36" version="24.7.6">
  <diagram name="Page-1" id="5f0bae14-7c28-e335-631c-24af17079c00">
    <mxGraphModel dx="1687" dy="868" grid="1" gridSize="10" guides="1" tooltips="1" connect="1" arrows="1" fold="1" page="1" pageScale="1" pageWidth="1100" pageHeight="850" background="#F2FCFF" math="0" shadow="0">
      <root>
        <mxCell id="0" />
        <mxCell id="1" parent="0" />
        <mxCell id="myV66OYVbwijSao33VMG-17" value="" style="edgeStyle=orthogonalEdgeStyle;rounded=0;orthogonalLoop=1;jettySize=auto;html=1;" edge="1" parent="1" source="myV66OYVbwijSao33VMG-2" target="myV66OYVbwijSao33VMG-6">
          <mxGeometry relative="1" as="geometry" />
        </mxCell>
        <mxCell id="myV66OYVbwijSao33VMG-2" value="dim_estado" style="rounded=0;whiteSpace=wrap;html=1;" vertex="1" parent="1">
          <mxGeometry x="240" y="320" width="120" height="60" as="geometry" />
        </mxCell>
        <mxCell id="myV66OYVbwijSao33VMG-18" value="" style="edgeStyle=orthogonalEdgeStyle;rounded=0;orthogonalLoop=1;jettySize=auto;html=1;" edge="1" parent="1" source="myV66OYVbwijSao33VMG-3" target="myV66OYVbwijSao33VMG-2">
          <mxGeometry relative="1" as="geometry" />
        </mxCell>
        <mxCell id="myV66OYVbwijSao33VMG-3" value="dim_cidade" style="rounded=0;whiteSpace=wrap;html=1;" vertex="1" parent="1">
          <mxGeometry x="240" y="450" width="120" height="60" as="geometry" />
        </mxCell>
        <mxCell id="myV66OYVbwijSao33VMG-4" value="dim_cliente" style="rounded=0;whiteSpace=wrap;html=1;" vertex="1" parent="1">
          <mxGeometry x="420" y="540" width="110" height="60" as="geometry" />
        </mxCell>
        <mxCell id="myV66OYVbwijSao33VMG-32" style="edgeStyle=orthogonalEdgeStyle;rounded=0;orthogonalLoop=1;jettySize=auto;html=1;entryX=1;entryY=0.5;entryDx=0;entryDy=0;" edge="1" parent="1" source="myV66OYVbwijSao33VMG-5" target="myV66OYVbwijSao33VMG-6">
          <mxGeometry relative="1" as="geometry" />
        </mxCell>
        <mxCell id="myV66OYVbwijSao33VMG-5" value="dim_cartão_crédito" style="rounded=0;whiteSpace=wrap;html=1;" vertex="1" parent="1">
          <mxGeometry x="640" y="180" width="120" height="60" as="geometry" />
        </mxCell>
        <mxCell id="myV66OYVbwijSao33VMG-20" value="" style="edgeStyle=orthogonalEdgeStyle;rounded=0;orthogonalLoop=1;jettySize=auto;html=1;" edge="1" parent="1" source="myV66OYVbwijSao33VMG-6" target="myV66OYVbwijSao33VMG-10">
          <mxGeometry relative="1" as="geometry" />
        </mxCell>
        <mxCell id="myV66OYVbwijSao33VMG-6" value="fact_data_venda" style="rounded=0;whiteSpace=wrap;html=1;" vertex="1" parent="1">
          <mxGeometry x="450" y="320" width="120" height="60" as="geometry" />
        </mxCell>
        <mxCell id="myV66OYVbwijSao33VMG-31" style="edgeStyle=orthogonalEdgeStyle;rounded=0;orthogonalLoop=1;jettySize=auto;html=1;entryX=0.75;entryY=0;entryDx=0;entryDy=0;" edge="1" parent="1" source="myV66OYVbwijSao33VMG-7" target="myV66OYVbwijSao33VMG-6">
          <mxGeometry relative="1" as="geometry" />
        </mxCell>
        <mxCell id="myV66OYVbwijSao33VMG-7" value="dim_sales_reason&lt;div&gt;&lt;br&gt;&lt;/div&gt;" style="rounded=0;whiteSpace=wrap;html=1;" vertex="1" parent="1">
          <mxGeometry x="670" y="280" width="120" height="60" as="geometry" />
        </mxCell>
        <mxCell id="myV66OYVbwijSao33VMG-26" style="edgeStyle=orthogonalEdgeStyle;rounded=0;orthogonalLoop=1;jettySize=auto;html=1;" edge="1" parent="1" source="myV66OYVbwijSao33VMG-8" target="myV66OYVbwijSao33VMG-6">
          <mxGeometry relative="1" as="geometry" />
        </mxCell>
        <mxCell id="myV66OYVbwijSao33VMG-8" value="dim_vendedor" style="rounded=0;whiteSpace=wrap;html=1;" vertex="1" parent="1">
          <mxGeometry x="610" y="480" width="120" height="60" as="geometry" />
        </mxCell>
        <mxCell id="myV66OYVbwijSao33VMG-27" style="edgeStyle=orthogonalEdgeStyle;rounded=0;orthogonalLoop=1;jettySize=auto;html=1;entryX=1;entryY=0.25;entryDx=0;entryDy=0;" edge="1" parent="1" source="myV66OYVbwijSao33VMG-9" target="myV66OYVbwijSao33VMG-6">
          <mxGeometry relative="1" as="geometry" />
        </mxCell>
        <mxCell id="myV66OYVbwijSao33VMG-9" value="Tabela calendário" style="rounded=0;whiteSpace=wrap;html=1;" vertex="1" parent="1">
          <mxGeometry x="700" y="380" width="120" height="60" as="geometry" />
        </mxCell>
        <mxCell id="myV66OYVbwijSao33VMG-10" value="dim_produto" style="rounded=0;whiteSpace=wrap;html=1;" vertex="1" parent="1">
          <mxGeometry x="450" y="170" width="120" height="60" as="geometry" />
        </mxCell>
        <mxCell id="myV66OYVbwijSao33VMG-14" value="" style="edgeStyle=orthogonalEdgeStyle;rounded=0;orthogonalLoop=1;jettySize=auto;html=1;" edge="1" parent="1" source="myV66OYVbwijSao33VMG-11" target="myV66OYVbwijSao33VMG-2">
          <mxGeometry relative="1" as="geometry" />
        </mxCell>
        <mxCell id="myV66OYVbwijSao33VMG-11" value="dim_pais" style="rounded=0;whiteSpace=wrap;html=1;" vertex="1" parent="1">
          <mxGeometry x="240" y="170" width="120" height="60" as="geometry" />
        </mxCell>
        <mxCell id="myV66OYVbwijSao33VMG-22" value="" style="edgeStyle=orthogonalEdgeStyle;rounded=0;orthogonalLoop=1;jettySize=auto;html=1;" edge="1" parent="1" source="myV66OYVbwijSao33VMG-12" target="myV66OYVbwijSao33VMG-4">
          <mxGeometry relative="1" as="geometry" />
        </mxCell>
        <mxCell id="myV66OYVbwijSao33VMG-12" value="dim_nome_cliente" style="rounded=0;whiteSpace=wrap;html=1;" vertex="1" parent="1">
          <mxGeometry x="415" y="660" width="120" height="60" as="geometry" />
        </mxCell>
        <mxCell id="myV66OYVbwijSao33VMG-23" value="" style="edgeStyle=orthogonalEdgeStyle;rounded=0;orthogonalLoop=1;jettySize=auto;html=1;" edge="1" parent="1" target="myV66OYVbwijSao33VMG-7">
          <mxGeometry relative="1" as="geometry">
            <mxPoint x="830" y="310" as="sourcePoint" />
          </mxGeometry>
        </mxCell>
        <mxCell id="myV66OYVbwijSao33VMG-13" value="&lt;div&gt;dim_motivo_venda&lt;/div&gt;" style="rounded=0;whiteSpace=wrap;html=1;" vertex="1" parent="1">
          <mxGeometry x="830" y="280" width="120" height="60" as="geometry" />
        </mxCell>
        <mxCell id="myV66OYVbwijSao33VMG-35" style="edgeStyle=orthogonalEdgeStyle;rounded=0;orthogonalLoop=1;jettySize=auto;html=1;entryX=0.192;entryY=1.033;entryDx=0;entryDy=0;entryPerimeter=0;" edge="1" parent="1" source="myV66OYVbwijSao33VMG-4" target="myV66OYVbwijSao33VMG-6">
          <mxGeometry relative="1" as="geometry" />
        </mxCell>
        <mxCell id="myV66OYVbwijSao33VMG-49" style="edgeStyle=orthogonalEdgeStyle;rounded=0;orthogonalLoop=1;jettySize=auto;html=1;entryX=0.5;entryY=0;entryDx=0;entryDy=0;" edge="1" parent="1" source="myV66OYVbwijSao33VMG-36" target="myV66OYVbwijSao33VMG-10">
          <mxGeometry relative="1" as="geometry" />
        </mxCell>
        <mxCell id="myV66OYVbwijSao33VMG-36" value="erp_product" style="rounded=0;whiteSpace=wrap;html=1;" vertex="1" parent="1">
          <mxGeometry x="360" y="80" width="120" height="40" as="geometry" />
        </mxCell>
        <mxCell id="myV66OYVbwijSao33VMG-51" style="edgeStyle=orthogonalEdgeStyle;rounded=0;orthogonalLoop=1;jettySize=auto;html=1;entryX=0.5;entryY=0;entryDx=0;entryDy=0;" edge="1" parent="1" source="myV66OYVbwijSao33VMG-37" target="myV66OYVbwijSao33VMG-10">
          <mxGeometry relative="1" as="geometry" />
        </mxCell>
        <mxCell id="myV66OYVbwijSao33VMG-37" value="erp_salesorderdetail" style="rounded=0;whiteSpace=wrap;html=1;" vertex="1" parent="1">
          <mxGeometry x="530" y="80" width="180" height="40" as="geometry" />
        </mxCell>
        <mxCell id="myV66OYVbwijSao33VMG-55" style="edgeStyle=orthogonalEdgeStyle;rounded=0;orthogonalLoop=1;jettySize=auto;html=1;entryX=0.5;entryY=1;entryDx=0;entryDy=0;" edge="1" parent="1" source="myV66OYVbwijSao33VMG-52" target="myV66OYVbwijSao33VMG-8">
          <mxGeometry relative="1" as="geometry" />
        </mxCell>
        <mxCell id="myV66OYVbwijSao33VMG-52" value="erp_person" style="rounded=0;whiteSpace=wrap;html=1;" vertex="1" parent="1">
          <mxGeometry x="570" y="620" width="90" height="40" as="geometry" />
        </mxCell>
        <mxCell id="myV66OYVbwijSao33VMG-64" style="edgeStyle=orthogonalEdgeStyle;rounded=0;orthogonalLoop=1;jettySize=auto;html=1;" edge="1" parent="1" source="myV66OYVbwijSao33VMG-53" target="myV66OYVbwijSao33VMG-8">
          <mxGeometry relative="1" as="geometry" />
        </mxCell>
        <mxCell id="myV66OYVbwijSao33VMG-53" value="erp_sales_person" style="rounded=0;whiteSpace=wrap;html=1;" vertex="1" parent="1">
          <mxGeometry x="670" y="620" width="110" height="40" as="geometry" />
        </mxCell>
        <mxCell id="myV66OYVbwijSao33VMG-62" value="" style="edgeStyle=orthogonalEdgeStyle;rounded=0;orthogonalLoop=1;jettySize=auto;html=1;" edge="1" parent="1" source="myV66OYVbwijSao33VMG-59" target="myV66OYVbwijSao33VMG-4">
          <mxGeometry relative="1" as="geometry" />
        </mxCell>
        <mxCell id="myV66OYVbwijSao33VMG-59" value="erp_person" style="rounded=0;whiteSpace=wrap;html=1;" vertex="1" parent="1">
          <mxGeometry x="300" y="535" width="80" height="30" as="geometry" />
        </mxCell>
        <mxCell id="myV66OYVbwijSao33VMG-63" value="" style="edgeStyle=orthogonalEdgeStyle;rounded=0;orthogonalLoop=1;jettySize=auto;html=1;" edge="1" parent="1" source="myV66OYVbwijSao33VMG-60" target="myV66OYVbwijSao33VMG-4">
          <mxGeometry relative="1" as="geometry" />
        </mxCell>
        <mxCell id="myV66OYVbwijSao33VMG-60" value="erp_custumer" style="rounded=0;whiteSpace=wrap;html=1;" vertex="1" parent="1">
          <mxGeometry x="300" y="580" width="80" height="30" as="geometry" />
        </mxCell>
      </root>
    </mxGraphModel>
  </diagram>
</mxfile>
